<svg width="154" height="154" viewBox="0 0 154 154" fill="none" xmlns="http://www.w3.org/2000/svg">
<rect width="154" height="154" fill="url(#paint0_linear_608_36)"/>
<circle cx="77" cy="77" r="43" fill="white"/>
<g clip-path="url(#clip0_608_36)">
<path fill-rule="evenodd" clip-rule="evenodd" d="M78.6692 68.9264C82.6509 68.9264 85.8787 65.6986 85.8787 61.7169C85.8787 57.7352 82.6509 54.5073 78.6692 54.5073C74.6874 54.5073 71.4596 57.7352 71.4596 61.7169C71.4596 65.6986 74.6874 68.9264 78.6692 68.9264ZM74.285 59.1838L76.3309 61.0349L80.6177 56.8456H82.3714L82.6636 58.8915L77.0129 64.5423H75.8438L72.4339 61.0349V59.1838H74.285Z" fill="#BCBBF5"/>
<path fill-rule="evenodd" clip-rule="evenodd" d="M56.2287 84.5811C55.7155 84.7232 55.2253 84.9253 54.7648 85.1796C54.3808 85.3918 54.2413 85.8759 54.4535 86.2599C54.6657 86.6439 55.1498 86.7834 55.5338 86.5713C56.2759 86.1612 57.1196 85.929 58.0142 85.929H61.2444C64.2406 85.929 66.6501 88.5233 66.6501 91.6923V97.9857C66.6501 99.0974 65.9231 99.9321 64.8155 100.136V90.5807C64.8155 90.1418 64.4593 89.7857 64.0205 89.7857C63.5818 89.7857 63.2255 90.1418 63.2255 90.5807V99.1427H56.033V90.5807C56.033 90.1418 55.6767 89.7857 55.238 89.7857C54.7992 89.7857 54.443 90.1418 54.443 90.5807V100.136C53.3355 99.9321 52.6084 99.0974 52.6084 97.9857V91.6923C52.6084 90.4863 52.9564 89.3656 53.5536 88.4379C53.7912 88.0689 53.6844 87.5766 53.3156 87.3391C52.9467 87.1015 52.4543 87.2083 52.2168 87.5772C51.4614 88.7505 51.0184 90.1671 51.0184 91.6923V97.9857C51.0184 99.9916 52.3641 101.528 54.443 101.747V103.2C54.443 103.639 54.7992 103.995 55.238 103.995C55.6767 103.995 56.033 103.639 56.033 103.2V100.733H63.2255V103.2C63.2255 103.639 63.5818 103.995 64.0205 103.995C64.4593 103.995 64.8155 103.639 64.8155 103.2V101.747C66.8944 101.528 68.2401 99.9916 68.2401 97.9857V91.6923C68.2401 88.274 66.0204 85.4111 63.0295 84.5814C63.994 83.6749 64.5965 82.3882 64.5965 80.9617C64.5965 78.2202 62.3707 75.9944 59.6292 75.9944C56.8878 75.9944 54.662 78.2202 54.662 80.9617C54.662 82.3882 55.2645 83.6749 56.2287 84.5811ZM91.9705 84.5814C88.9796 85.4111 86.7598 88.274 86.7598 91.6923V97.9857C86.7598 99.9916 88.1056 101.528 90.1845 101.747V103.2C90.1845 103.639 90.5406 103.995 90.9795 103.995C91.4182 103.995 91.7745 103.639 91.7745 103.2V100.733H98.967V103.2C98.967 103.639 99.3233 103.995 99.762 103.995C100.201 103.995 100.557 103.639 100.557 103.2V101.747C102.636 101.528 103.982 99.9916 103.982 97.9857V91.6923C103.982 90.3057 103.615 89.0089 102.981 87.9031C102.763 87.5225 102.277 87.3906 101.896 87.6089C101.516 87.8271 101.384 88.3133 101.602 88.694C102.104 89.5689 102.392 90.5953 102.392 91.6923V97.9857C102.392 99.0974 101.664 99.9321 100.557 100.136V90.5807C100.557 90.1418 100.201 89.7857 99.762 89.7857C99.3233 89.7857 98.967 90.1418 98.967 90.5807V99.1427H91.7745V90.5807C91.7745 90.1418 91.4182 89.7857 90.9795 89.7857C90.5406 89.7857 90.1845 90.1418 90.1845 90.5807V100.136C89.0769 99.9321 88.3498 99.0974 88.3498 97.9857V91.6923C88.3498 88.5233 90.7594 85.929 93.7556 85.929H96.9858C97.9834 85.929 98.9178 86.2179 99.7186 86.7201C100.09 86.953 100.581 86.8405 100.814 86.4687C101.048 86.097 100.935 85.6059 100.563 85.3729C100.01 85.0262 99.4084 84.7575 98.7714 84.5811C99.7355 83.6749 100.338 82.3882 100.338 80.9617C100.338 78.2202 98.1122 75.9944 95.3707 75.9944C92.6293 75.9944 90.4035 78.2202 90.4035 80.9617C90.4035 82.3882 91.006 83.6749 91.9705 84.5814ZM76.6585 101.488V103.182C76.6585 103.621 77.0146 103.977 77.4535 103.977C77.8922 103.977 78.2485 103.621 78.2485 103.182V101.488C78.2485 101.049 77.8922 100.693 77.4535 100.693C77.0146 100.693 76.6585 101.049 76.6585 101.488ZM74.0532 81.2954C71.0623 82.1251 68.8425 84.988 68.8425 88.4063V89.7703C68.8425 90.209 69.1988 90.5653 69.6375 90.5653C70.0764 90.5653 70.4325 90.209 70.4325 89.7703V88.4063C70.4325 85.2373 72.8421 82.643 75.8383 82.643H79.0685C82.0647 82.643 84.4743 85.2373 84.4743 88.4063V94.6997C84.4743 95.8114 83.7472 96.6461 82.6397 96.8496V87.2947C82.6397 86.8558 82.2834 86.4997 81.8447 86.4997C81.406 86.4997 81.0497 86.8558 81.0497 87.2947V95.8567H73.8572V87.2947C73.8572 86.8558 73.5009 86.4997 73.0622 86.4997C72.6234 86.4997 72.2672 86.8558 72.2672 87.2947V96.8496C71.1596 96.6461 70.4325 95.8114 70.4325 94.6997V92.9126C70.4325 92.4737 70.0764 92.1176 69.6375 92.1176C69.1988 92.1176 68.8425 92.4737 68.8425 92.9126V94.6997C68.8425 96.7056 70.1883 98.2421 72.2672 98.461V103.182C72.2672 103.621 72.6234 103.977 73.0622 103.977C73.5009 103.977 73.8572 103.621 73.8572 103.182V97.4467H81.0497V103.182C81.0497 103.621 81.406 103.977 81.8447 103.977C82.2834 103.977 82.6397 103.621 82.6397 103.182V98.461C84.7186 98.2421 86.0643 96.7056 86.0643 94.6997V88.4063C86.0643 84.988 83.8446 82.1251 80.8537 81.2954C81.8181 80.3889 82.4207 79.1022 82.4207 77.6757C82.4207 74.9342 80.1949 72.7084 77.4535 72.7084C74.712 72.7084 72.4862 74.9342 72.4862 77.6757C72.4862 79.1022 73.0887 80.3889 74.0532 81.2954ZM59.6292 84.339C57.7653 84.339 56.252 82.8257 56.252 80.9617C56.252 79.0978 57.7653 77.5844 59.6292 77.5844C61.4932 77.5844 63.0065 79.0978 63.0065 80.9617C63.0065 82.8257 61.4932 84.339 59.6292 84.339ZM95.3707 84.339C93.5067 84.339 91.9935 82.8257 91.9935 80.9617C91.9935 79.0978 93.5067 77.5844 95.3707 77.5844C97.2346 77.5844 98.748 79.0978 98.748 80.9617C98.748 82.8257 97.2346 84.339 95.3707 84.339ZM77.4535 81.053C75.5894 81.053 74.0762 79.5397 74.0762 77.6757C74.0762 75.8118 75.5894 74.2984 77.4535 74.2984C79.3174 74.2984 80.8307 75.8118 80.8307 77.6757C80.8307 79.5397 79.3174 81.053 77.4535 81.053ZM83.1416 66.348C81.6964 67.76 79.7201 68.6309 77.542 68.6309C73.1184 68.6309 69.527 65.0396 69.527 60.616C69.527 56.1924 73.1184 52.601 77.542 52.601C81.9656 52.601 85.5569 56.1924 85.5569 60.616C85.5569 61.8285 85.2873 62.9786 84.8043 64.0091C84.6181 64.4065 84.7896 64.8802 85.1869 65.0664C85.5842 65.2526 86.0579 65.0811 86.2441 64.6838C86.8231 63.4483 87.1469 62.0696 87.1469 60.616C87.1469 55.3149 82.843 51.011 77.542 51.011C72.2408 51.011 67.937 55.3149 67.937 60.616C67.937 65.9171 72.2408 70.2209 77.542 70.2209C80.1523 70.2209 82.5209 69.1776 84.2528 67.4852C84.5667 67.1785 84.5725 66.6748 84.2659 66.361C83.9592 66.0472 83.4555 66.0414 83.1416 66.348ZM72.0418 61.9205L74.8389 64.7175C75.7491 65.6277 77.2247 65.6277 78.1349 64.7175L83.042 59.8105C83.9516 58.9009 83.9516 57.4239 83.042 56.5143C82.1324 55.6047 80.6555 55.6047 79.7459 56.5143L76.4751 59.7852L75.3379 58.6243C74.4283 57.7147 72.9514 57.7147 72.0418 58.6243C71.1322 59.5339 71.1322 61.0109 72.0418 61.9205ZM73.1661 60.7962L75.9631 63.5932C76.2524 63.8825 76.7214 63.8825 77.0107 63.5932L81.9177 58.6861C82.2068 58.3971 82.2068 57.9277 81.9177 57.6386C81.6287 57.3496 81.1593 57.3496 80.8703 57.6386L76.4869 62.0219L74.2136 59.7487C73.9245 59.4596 73.4551 59.4596 73.1661 59.7487C72.877 60.0377 72.877 60.5071 73.1661 60.7962Z" fill="#656CD0"/>
</g>
<defs>
<linearGradient id="paint0_linear_608_36" x1="0" y1="0" x2="154" y2="154" gradientUnits="userSpaceOnUse">
<stop stop-color="#589DDB"/>
<stop offset="1" stop-color="#723BC5"/>
</linearGradient>
<clipPath id="clip0_608_36">
<rect width="53" height="53" fill="white" transform="translate(51 51)"/>
</clipPath>
</defs>
</svg>
