<svg width="16" height="16" viewBox="0 0 16 16" fill="none" xmlns="http://www.w3.org/2000/svg">
<g clip-path="url(#clip0_18_2658)">
<path d="M15.75 7C15.75 11.2802 12.2802 14.75 8 14.75C3.71978 14.75 0.25 11.2802 0.25 7C0.25 2.71978 3.71978 -0.75 8 -0.75C12.2802 -0.75 15.75 2.71978 15.75 7ZM7.10356 11.1036L12.8536 5.35356C13.0488 5.15831 13.0488 4.84172 12.8536 4.64647L12.1465 3.93937C11.9512 3.74409 11.6346 3.74409 11.4393 3.93937L6.75 8.62869L4.56066 6.43934C4.36541 6.24409 4.04881 6.24409 3.85353 6.43934L3.14644 7.14644C2.95119 7.34169 2.95119 7.65828 3.14644 7.85353L6.39644 11.1035C6.59172 11.2988 6.90828 11.2988 7.10356 11.1036Z" fill="#27D4A5"/>
</g>
<defs>
<clipPath id="clip0_18_2658">
<rect width="16" height="16" fill="white"/>
</clipPath>
</defs>
</svg>
