<svg width="154" height="154" viewBox="0 0 154 154" fill="none" xmlns="http://www.w3.org/2000/svg">
<path d="M0 0H154V154H0V0Z" fill="url(#paint0_linear_692_27)"/>
<circle cx="77" cy="77" r="43" fill="white"/>
<g clip-path="url(#clip0_692_27)">
<path fill-rule="evenodd" clip-rule="evenodd" d="M71.2756 67.6215C70.4656 66.2706 70 64.6897 70 63C70 58.0294 74.0294 54 79 54C83.9706 54 88 58.0294 88 63C88 66.1559 86.3756 68.9324 83.9174 70.5391C83.9718 70.2007 84 69.8537 84 69.5C84 66.629 82.1386 64.1927 79.5568 63.3322C80.4315 62.6959 81 61.6643 81 60.5C81 58.567 79.433 57 77.5 57C75.567 57 74 58.567 74 60.5C74 61.6643 74.5685 62.6959 75.4432 63.3322C73.4487 63.9969 71.8842 65.602 71.2756 67.6215Z" fill="#BCBBF5"/>
<path fill-rule="evenodd" clip-rule="evenodd" d="M77.7985 51.339L77.7399 51.3387C71.7541 51.3387 66.8944 56.1984 66.8944 62.1842C66.8944 65.2536 68.1723 68.0267 70.2244 70.0004C70.23 70.0061 70.2356 70.0117 70.2414 70.0172C71.4719 71.1955 72.9791 72.0869 74.655 72.5838L74.6555 72.584C74.7296 72.6059 74.8041 72.6271 74.8789 72.6476L74.9974 72.6793L75.0704 72.6978V81.8047L72.4142 79.3874C72.385 79.3607 72.3538 79.3363 72.3208 79.3144C72.3208 79.3144 71.508 78.7555 70.3579 78.8414C69.6386 78.895 68.7695 79.1915 67.9056 80.098C65.6851 82.4278 67.6053 84.647 67.6053 84.647C67.6186 84.6628 67.6326 84.678 67.647 84.6927L74.675 91.8074L74.7529 95.2374C73.6657 95.365 72.8208 96.2907 72.8208 97.4121V101.471C72.8208 102.68 73.8021 103.661 75.0107 103.661H91.6285C92.837 103.661 93.8183 102.68 93.8183 101.471V97.4121C93.8183 96.2047 92.839 95.2243 91.6321 95.2223C91.6329 94.249 91.6338 92.4009 91.6316 91.4035C91.6303 90.8749 91.9405 90.4098 92.216 89.9309C92.6323 89.207 93.015 88.4701 93.0202 87.6712C93.0319 85.9028 93.0202 85.1584 93.0202 85.1584C93.0133 84.7208 92.6526 84.371 92.215 84.3779C91.7775 84.3847 91.4278 84.7454 91.4345 85.1829C91.4345 85.1829 91.4459 85.9171 91.4344 87.6609C91.4309 88.1918 91.1179 88.6592 90.8413 89.1404C90.4236 89.8665 90.0439 90.6057 90.0457 91.4071C90.048 92.4037 90.047 94.2503 90.0463 95.2223H87.9433C87.5058 95.2223 87.1505 95.5776 87.1505 96.0152C87.1505 96.4529 87.5058 96.8082 87.9433 96.8082H91.6285C91.9618 96.8082 92.2324 97.0788 92.2324 97.4121V101.471C92.2324 101.805 91.9618 102.075 91.6285 102.075H75.0107C74.6773 102.075 74.4067 101.805 74.4067 101.471V97.4121C74.4067 97.0788 74.6773 96.8082 75.0107 96.8082H84.7112C85.1487 96.8082 85.5041 96.4529 85.5041 96.0152C85.5041 95.5776 85.1487 95.2223 84.7112 95.2223H76.3388L76.2532 91.4563C76.2487 91.254 76.1668 91.0611 76.0246 90.9171L68.8054 83.6087C68.6996 83.4662 67.9427 82.3576 69.0536 81.192C70.1454 80.0464 71.2076 80.5117 71.4069 80.615C71.4071 80.6151 75.3295 84.1849 75.3295 84.1849C75.5617 84.3962 75.8967 84.4506 76.1838 84.3237C76.471 84.1967 76.6561 83.9124 76.6561 83.5985V68.16C76.6561 68.1504 76.656 68.1408 76.6556 68.1313C76.6556 68.1313 76.6506 67.789 76.8919 67.5073C77.0845 67.2825 77.4266 67.1302 77.9839 67.118C78.3638 67.1096 78.6313 67.1924 78.8094 67.3474C79.2282 67.7121 79.1777 68.343 79.1777 68.343C79.1769 68.3566 79.1766 68.3702 79.1766 68.3838V80.5555C79.1766 80.9932 79.5319 81.3484 79.9695 81.3484C80.4072 81.3484 80.7625 80.9932 80.7625 80.5555V78.3474C80.7631 78.3347 80.7633 78.3219 80.7633 78.309V76.7568C80.7633 76.0669 81.3234 75.507 82.0133 75.507C82.7031 75.507 83.2632 76.0669 83.2632 76.7568V80.8684C83.2632 81.306 83.6184 81.6613 84.0561 81.6613C84.4937 81.6613 84.849 81.306 84.849 80.8684V77.5817C84.849 76.8918 85.4091 76.3317 86.0989 76.3317C86.7888 76.3317 87.3488 76.8918 87.3488 77.5817V80.8684L87.3489 80.8786C87.3532 81.2263 87.582 81.5204 87.8967 81.6226L87.9627 81.641L88.0407 81.655L88.1213 81.661L88.207 81.6587L88.2861 81.6482L88.3681 81.6285L88.4413 81.6027L88.5111 81.57L88.577 81.5311L88.646 81.4802L88.709 81.4222L88.7679 81.3545L88.8168 81.2843L88.8581 81.2084L88.8898 81.1317L88.9121 81.0569L88.9269 80.9792L88.934 80.8991L88.9346 80.8684V78.7363C88.9346 78.0465 89.4946 77.4865 90.1845 77.4865C90.8743 77.4865 91.4344 78.0465 91.4344 78.7363V82.0664C91.4344 82.5041 91.7898 82.8593 92.2273 82.8593C92.665 82.8593 93.0203 82.5041 93.0203 82.0664V78.7363C93.0203 77.1713 91.7496 75.9006 90.1845 75.9006C89.6208 75.9006 89.0952 76.0656 88.6533 76.3498C88.1946 75.401 87.2226 74.7459 86.0989 74.7459C85.4782 74.7459 84.9038 74.9458 84.4367 75.2845C83.9389 74.4672 83.0393 73.9211 82.0133 73.9211C81.5644 73.9211 81.1397 74.0256 80.7625 74.2116V72.602L80.866 72.5715L80.9458 72.5471C81.0136 72.5262 81.081 72.5046 81.1482 72.4823L81.2004 72.465C82.7262 71.9509 84.1007 71.1067 85.2384 70.0172C85.2445 70.0114 85.2504 70.0054 85.2562 69.9995C87.1564 68.1714 88.3922 65.6583 88.5647 62.8595C88.5916 62.4226 88.2588 62.0461 87.8221 62.0193C87.3852 61.9924 87.0087 62.3251 86.9818 62.7619C86.8681 64.608 86.2124 66.3086 85.172 67.706C84.5355 65.5542 83.0351 63.7884 81.0887 62.8313C81.6041 62.1374 81.909 61.2785 81.909 60.3488C81.909 58.0478 80.0409 56.1798 77.7399 56.1798C75.4389 56.1798 73.5708 58.0478 73.5708 60.3488C73.5708 61.2785 73.8758 62.1374 74.3911 62.8313C72.4446 63.7884 70.9443 65.5542 70.3079 67.7059C69.1599 66.1639 68.4802 64.2528 68.4802 62.1842C68.4802 57.0737 72.6293 52.9246 77.7399 52.9246C82.0124 52.9246 85.613 55.8242 86.6791 59.7615C86.7933 60.1839 87.2292 60.434 87.6516 60.3197C88.074 60.2053 88.3241 59.7695 88.2097 59.347C86.9661 54.7535 82.777 51.3652 77.7985 51.339ZM80.7625 70.9388C81.9149 70.5403 82.9642 69.9206 83.8597 69.1308C83.5368 66.7387 81.9263 64.7661 79.7686 63.9911C79.1682 64.3266 78.4763 64.5179 77.7399 64.5179C77.0036 64.5179 76.3116 64.3266 75.7111 63.9911C73.5534 64.7661 71.943 66.7387 71.6201 69.1308C72.597 69.9924 73.7566 70.6514 75.0332 71.0415L75.0704 71.0526V68.16V68.1608C75.0696 67.9995 75.0958 67.1666 75.6874 66.4758C76.0944 66.0004 76.7715 65.5583 77.9491 65.5326C78.836 65.5131 79.4353 65.7896 79.8509 66.1515C80.7712 66.953 80.7644 68.2903 80.7616 68.415L80.7614 68.4243L80.7625 68.3838V70.9388ZM94.5772 62.1545C92.6042 63.3278 91.2509 65.6099 91.2509 68.2448C91.2509 68.2872 91.2512 68.3295 91.2519 68.3721C91.2592 68.8048 91.612 69.1516 92.0447 69.1516H103.206C103.639 69.1516 103.992 68.8048 103.999 68.3721C104 68.3295 104 68.2872 104 68.2448C104 65.6099 102.647 63.3278 100.674 62.1545C101.369 61.4094 101.794 60.4097 101.794 59.3114C101.794 57.0105 99.9264 55.1423 97.6254 55.1423C95.3244 55.1423 93.4563 57.0105 93.4563 59.3114C93.4563 60.4097 93.8819 61.4094 94.5772 62.1545ZM54.3264 62.1545C52.3534 63.3278 51 65.6099 51 68.2448C51 68.2872 51.0003 68.3295 51.0011 68.3721C51.0084 68.8048 51.3611 69.1516 51.7938 69.1516H62.9553C63.388 69.1516 63.7408 68.8048 63.7481 68.3721C63.7488 68.3295 63.7492 68.2872 63.7492 68.2448C63.7492 65.6099 62.3958 63.3278 60.4228 62.1545C61.1181 61.4094 61.5437 60.4097 61.5437 59.3114C61.5437 57.0105 59.6756 55.1423 57.3746 55.1423C55.0736 55.1423 53.2055 57.0105 53.2055 59.3114C53.2055 60.4097 53.6311 61.4094 54.3264 62.1545ZM99.1744 63.1829C98.6953 63.3748 98.1725 63.4805 97.6254 63.4805C97.0782 63.4805 96.5555 63.3748 96.0765 63.1829C94.3659 63.8364 93.1064 65.5282 92.875 67.5659H102.376C102.144 65.5282 100.885 63.8364 99.1744 63.1829ZM58.9235 63.1829C58.4445 63.3748 57.9218 63.4805 57.3746 63.4805C56.8275 63.4805 56.3047 63.3748 55.8257 63.1829C54.115 63.8364 52.8555 65.5282 52.6241 67.5659H62.125C61.8936 65.5282 60.6341 63.8364 58.9235 63.1829ZM77.7399 57.7655C79.1657 57.7655 80.3232 58.923 80.3232 60.3488C80.3232 61.7745 79.1657 62.9321 77.7399 62.9321C76.3142 62.9321 75.1567 61.7745 75.1567 60.3488C75.1567 58.923 76.3142 57.7655 77.7399 57.7655ZM97.6254 56.7282C99.0512 56.7282 100.209 57.8857 100.209 59.3114C100.209 60.7371 99.0512 61.8946 97.6254 61.8946C96.1997 61.8946 95.0422 60.7371 95.0422 59.3114C95.0422 57.8857 96.1997 56.7282 97.6254 56.7282ZM57.3746 56.7282C58.8003 56.7282 59.9578 57.8857 59.9578 59.3114C59.9578 60.7371 58.8003 61.8946 57.3746 61.8946C55.9488 61.8946 54.7913 60.7371 54.7913 59.3114C54.7913 57.8857 55.9488 56.7282 57.3746 56.7282Z" fill="#656CD0"/>
</g>
<defs>
<linearGradient id="paint0_linear_692_27" x1="0" y1="0" x2="154" y2="154" gradientUnits="userSpaceOnUse">
<stop stop-color="#589DDB"/>
<stop offset="1" stop-color="#723BC5"/>
</linearGradient>
<clipPath id="clip0_692_27">
<rect width="53" height="53" fill="white" transform="translate(51 51)"/>
</clipPath>
</defs>
</svg>
