<svg width="500" height="494" viewBox="0 0 500 494" fill="none" xmlns="http://www.w3.org/2000/svg">
<path fill-rule="evenodd" clip-rule="evenodd" d="M252.816 0.198045L252.263 0.196045C195.793 0.196045 149.947 46.042 149.947 102.512C149.947 131.468 162.003 157.63 181.362 176.249C181.415 176.303 181.468 176.356 181.523 176.408C193.131 187.524 207.35 195.933 223.16 200.621L223.165 200.623C223.864 200.83 224.567 201.03 225.273 201.223L226.391 201.522L227.079 201.697V287.611L202.021 264.806C201.745 264.554 201.451 264.324 201.14 264.117C201.14 264.117 193.472 258.845 182.622 259.655C175.836 260.161 167.637 262.958 159.487 271.51C138.539 293.489 156.654 314.425 156.654 314.425C156.779 314.574 156.911 314.717 157.047 314.856L223.349 381.976L224.084 414.334C213.827 415.538 205.857 424.271 205.857 434.85V473.145C205.857 484.547 215.114 493.804 226.516 493.804H383.288C394.689 493.804 403.946 484.547 403.946 473.145V434.85C403.946 423.46 394.708 414.211 383.322 414.192C383.329 405.01 383.338 387.575 383.317 378.165C383.305 373.179 386.231 368.791 388.83 364.273C392.758 357.444 396.368 350.492 396.417 342.955C396.527 326.272 396.417 319.249 396.417 319.249C396.352 315.121 392.949 311.821 388.821 311.886C384.693 311.95 381.394 315.353 381.458 319.481C381.458 319.481 381.565 326.407 381.457 342.858C381.424 347.866 378.471 352.276 375.861 356.815C371.921 363.665 368.339 370.639 368.356 378.199C368.377 387.601 368.368 405.022 368.361 414.192H348.522C344.394 414.192 341.042 417.544 341.042 421.672C341.042 425.801 344.394 429.153 348.522 429.153H383.288C386.432 429.153 388.985 431.706 388.985 434.85V473.145C388.985 476.29 386.432 478.843 383.288 478.843H226.516C223.371 478.843 220.818 476.29 220.818 473.145V434.85C220.818 431.706 223.371 429.153 226.516 429.153H318.03C322.158 429.153 325.51 425.801 325.51 421.672C325.51 417.544 322.158 414.192 318.03 414.192H239.045L238.238 378.664C238.195 376.755 237.423 374.935 236.081 373.577L167.975 304.63C166.977 303.285 159.837 292.827 170.317 281.831C180.617 271.023 190.638 275.413 192.518 276.387C192.52 276.388 229.524 310.065 229.524 310.065C231.714 312.059 234.875 312.572 237.583 311.375C240.292 310.177 242.039 307.495 242.039 304.533V158.887C242.039 158.797 242.038 158.706 242.034 158.616C242.034 158.616 241.987 155.387 244.263 152.73C246.08 150.609 249.308 149.172 254.565 149.057C258.149 148.978 260.673 149.759 262.353 151.221C266.304 154.662 265.827 160.614 265.827 160.614C265.82 160.742 265.817 160.87 265.817 160.998V275.826C265.817 279.955 269.169 283.306 273.297 283.306C277.426 283.306 280.778 279.955 280.778 275.826V254.995C280.784 254.875 280.786 254.754 280.786 254.632V239.989C280.786 233.481 286.07 228.198 292.578 228.198C299.086 228.198 304.37 233.481 304.37 239.989V278.778C304.37 282.906 307.721 286.258 311.85 286.258C315.978 286.258 319.33 282.906 319.33 278.778V247.771C319.33 241.263 324.614 235.979 331.122 235.979C337.63 235.979 342.913 241.263 342.913 247.771V278.778L342.914 278.874C342.955 282.154 345.113 284.929 348.082 285.893L348.705 286.066L349.441 286.198L350.201 286.255L351.009 286.233L351.756 286.134L352.529 285.948L353.22 285.705L353.878 285.397L354.5 285.03L355.151 284.549L355.745 284.002L356.301 283.364L356.762 282.701L357.152 281.985L357.451 281.262L357.661 280.556L357.801 279.823L357.868 279.067L357.874 278.778V258.664C357.874 252.156 363.157 246.873 369.665 246.873C376.173 246.873 381.457 252.156 381.457 258.664V290.08C381.457 294.209 384.809 297.56 388.937 297.56C393.066 297.56 396.418 294.209 396.418 290.08V258.664C396.418 243.899 384.43 231.912 369.665 231.912C364.347 231.912 359.389 233.468 355.22 236.149C350.892 227.198 341.723 221.018 331.122 221.018C325.266 221.018 319.847 222.904 315.441 226.099C310.744 218.389 302.258 213.237 292.578 213.237C288.343 213.237 284.337 214.223 280.778 215.978V200.793L281.755 200.505L282.508 200.275C283.147 200.078 283.783 199.874 284.417 199.664L284.909 199.5C299.304 194.65 312.271 186.686 323.004 176.408C323.061 176.353 323.117 176.297 323.172 176.241C341.098 158.995 352.757 135.286 354.384 108.882C354.638 104.761 351.498 101.209 347.378 100.956C343.257 100.702 339.705 103.841 339.451 107.962C338.378 125.378 332.192 141.421 322.377 154.604C316.373 134.304 302.218 117.646 283.856 108.616C288.718 102.07 291.594 93.967 291.594 85.197C291.594 63.489 273.971 45.866 252.263 45.866C230.556 45.866 212.932 63.489 212.932 85.197C212.932 93.967 215.809 102.07 220.671 108.616C202.308 117.646 188.154 134.304 182.15 154.603C171.32 140.056 164.908 122.027 164.908 102.512C164.908 54.299 204.05 15.157 252.263 15.157C292.57 15.157 326.538 42.512 336.595 79.656C337.673 83.641 341.785 86 345.77 84.922C349.755 83.843 352.114 79.731 351.035 75.746C339.303 32.411 299.783 0.446045 252.816 0.198045ZM280.778 185.102C291.65 181.343 301.549 175.497 309.997 168.046C306.951 145.479 291.758 126.869 271.402 119.558C265.738 122.723 259.21 124.528 252.263 124.528C245.317 124.528 238.789 122.723 233.124 119.558C212.768 126.869 197.575 145.479 194.529 168.046C203.745 176.174 214.685 182.391 226.728 186.071L227.079 186.176V158.887V158.895C227.072 157.373 227.319 149.515 232.9 142.998C236.74 138.514 243.127 134.343 254.237 134.1C262.604 133.916 268.258 136.525 272.178 139.939C280.86 147.5 280.796 160.116 280.77 161.293L280.768 161.381L280.778 160.998V185.102ZM411.106 102.231C392.492 113.3 379.725 134.83 379.725 159.687C379.725 160.087 379.728 160.486 379.735 160.888C379.804 164.97 383.132 168.242 387.214 168.242H492.511C496.593 168.242 499.921 164.97 499.99 160.888C499.997 160.486 500 160.087 500 159.687C500 134.83 487.232 113.3 468.619 102.231C475.178 95.202 479.193 85.771 479.193 75.41C479.193 53.703 461.57 36.079 439.862 36.079C418.155 36.079 400.531 53.703 400.531 75.41C400.531 85.771 404.546 95.202 411.106 102.231ZM31.381 102.231C12.768 113.3 0 134.83 0 159.687C0 160.087 0.003 160.486 0.01 160.888C0.079 164.97 3.407 168.242 7.489 168.242H112.786C116.868 168.242 120.196 164.97 120.265 160.888C120.272 160.486 120.275 160.087 120.275 159.687C120.275 134.83 107.508 113.3 88.894 102.231C95.454 95.202 99.469 85.771 99.469 75.41C99.469 53.703 81.845 36.079 60.138 36.079C38.43 36.079 20.807 53.703 20.807 75.41C20.807 85.771 24.822 95.202 31.381 102.231ZM454.475 111.933C449.956 113.744 445.024 114.741 439.862 114.741C434.7 114.741 429.769 113.744 425.25 111.933C409.112 118.098 397.23 134.059 395.047 153.282H484.678C482.495 134.059 470.613 118.098 454.475 111.933ZM74.75 111.933C70.231 113.744 65.3 114.741 60.138 114.741C54.976 114.741 50.044 113.744 45.525 111.933C29.387 118.098 17.505 134.059 15.322 153.282H104.953C102.77 134.059 90.888 118.098 74.75 111.933ZM252.263 60.826C265.714 60.826 276.634 71.746 276.634 85.197C276.634 98.647 265.714 109.567 252.263 109.567C238.813 109.567 227.893 98.647 227.893 85.197C227.893 71.746 238.813 60.826 252.263 60.826ZM439.862 51.04C453.313 51.04 464.233 61.96 464.233 75.41C464.233 88.86 453.313 99.78 439.862 99.78C426.412 99.78 415.492 88.86 415.492 75.41C415.492 61.96 426.412 51.04 439.862 51.04ZM60.138 51.04C73.588 51.04 84.508 61.96 84.508 75.41C84.508 88.86 73.588 99.78 60.138 99.78C46.687 99.78 35.767 88.86 35.767 75.41C35.767 61.96 46.687 51.04 60.138 51.04Z" fill="white"/>
</svg>
