<svg width="30" height="30" viewBox="0 0 30 30" fill="none" xmlns="http://www.w3.org/2000/svg">
<circle cx="15" cy="15" r="15" fill="#656DD1"/>
<path d="M21.9154 14.7207C20.5973 12.2132 17.9879 10.5167 15 10.5167C12.0121 10.5167 9.40193 12.2144 8.08457 14.7209C8.02897 14.8281 8 14.9466 8 15.0668C8 15.1869 8.02897 15.3054 8.08457 15.4127C9.40266 17.9201 12.0121 19.6167 15 19.6167C17.9879 19.6167 20.598 17.9189 21.9154 15.4124C21.971 15.3052 22 15.1867 22 15.0665C22 14.9464 21.971 14.8279 21.9154 14.7207ZM15 18.4792C14.3078 18.4792 13.6311 18.279 13.0555 17.9041C12.4799 17.5291 12.0313 16.9961 11.7664 16.3726C11.5015 15.749 11.4322 15.0629 11.5672 14.4009C11.7023 13.739 12.0356 13.1309 12.5251 12.6537C13.0146 12.1764 13.6382 11.8514 14.3172 11.7197C14.9961 11.5881 15.6998 11.6556 16.3394 11.9139C16.9789 12.1722 17.5255 12.6096 17.9101 13.1708C18.2947 13.732 18.5 14.3917 18.5 15.0667C18.5002 15.5149 18.4098 15.9587 18.234 16.3728C18.0582 16.787 17.8004 17.1632 17.4754 17.4802C17.1503 17.7971 16.7644 18.0484 16.3396 18.2198C15.9149 18.3913 15.4597 18.4794 15 18.4792ZM15 12.7917C14.7917 12.7945 14.5848 12.8247 14.3848 12.8815C14.5497 13.0999 14.6288 13.3687 14.6078 13.6391C14.5868 13.9095 14.4671 14.1636 14.2705 14.3554C14.0738 14.5471 13.8131 14.6638 13.5358 14.6843C13.2585 14.7047 12.9828 14.6276 12.7588 14.4669C12.6312 14.9251 12.6542 15.4108 12.8246 15.8556C12.995 16.3004 13.3041 16.6819 13.7085 16.9464C14.1129 17.2109 14.5922 17.3451 15.079 17.3301C15.5657 17.3151 16.0354 17.1517 16.4218 16.8628C16.8083 16.5739 17.0921 16.1742 17.2334 15.7198C17.3746 15.2654 17.3662 14.7792 17.2092 14.3298C17.0522 13.8803 16.7546 13.4902 16.3583 13.2143C15.962 12.9383 15.487 12.7905 15 12.7917Z" fill="white"/>
</svg>
