<svg width="16" height="16" viewBox="0 0 16 16" fill="none" xmlns="http://www.w3.org/2000/svg">
<g clip-path="url(#clip0_82_7)">
<path d="M15.2578 7.75C15.2578 11.8974 11.8962 15.2578 7.75 15.2578C3.60384 15.2578 0.242188 11.8974 0.242188 7.75C0.242188 3.60505 3.60384 0.242188 7.75 0.242188C11.8962 0.242188 15.2578 3.60505 15.2578 7.75ZM7.75 9.26367C6.9809 9.26367 6.35742 9.88715 6.35742 10.6562C6.35742 11.4253 6.9809 12.0488 7.75 12.0488C8.5191 12.0488 9.14258 11.4253 9.14258 10.6562C9.14258 9.88715 8.5191 9.26367 7.75 9.26367ZM6.42787 4.25808L6.65244 8.37527C6.66294 8.56793 6.82224 8.71875 7.01517 8.71875H8.48483C8.67776 8.71875 8.83706 8.56793 8.84756 8.37527L9.07213 4.25808C9.08348 4.04998 8.9178 3.875 8.7094 3.875H6.79057C6.58217 3.875 6.41652 4.04998 6.42787 4.25808Z" fill="#FFAE00"/>
</g>
<defs>
<clipPath id="clip0_82_7">
<rect width="15.5" height="15.5" fill="white"/>
</clipPath>
</defs>
</svg>
