<svg width="146" height="146" viewBox="0 0 146 146" fill="none" xmlns="http://www.w3.org/2000/svg">
<g clip-path="url(#clip0_82_2780)">
<path d="M73 146C113.316 146 146 113.316 146 73C146 32.6836 113.316 0 73 0C32.6836 0 0 32.6836 0 73C0 113.316 32.6836 146 73 146Z" fill="#FFAB4F"/>
<path d="M142.346 95.8718C135.422 116.88 119.216 133.671 98.5779 141.395L65.3994 108.216C67.4595 109.937 70.1108 110.975 73.0002 110.975C79.195 110.975 84.2977 106.203 84.8218 100.142L66.8769 82.2865C67.2536 82.4208 67.658 82.4938 68.08 82.4938H77.9204C79.8184 82.4938 81.382 81.0075 81.4769 79.1124L83.4932 38.7639C83.5341 37.9667 83.3078 37.2192 82.8961 36.606L82.9472 36.4746L142.346 95.8718Z" fill="#F48C44"/>
<path d="M84.8671 99.1077C84.8671 105.651 79.5439 110.975 73.0002 110.975C66.4565 110.975 61.1333 105.651 61.1333 99.1077C61.1333 92.564 66.4565 87.2408 73.0002 87.2408C79.5439 87.2408 84.8671 92.564 84.8671 99.1077ZM62.5072 38.763L64.5234 79.1115C64.6183 81.0066 66.182 82.4929 68.08 82.4929H77.9204C79.8184 82.4929 81.382 81.0066 81.4769 79.1115L83.4932 38.763C83.5954 36.7292 81.9733 35.0254 79.9381 35.0254H66.0623C64.027 35.0254 62.405 36.7292 62.5072 38.763Z" fill="white"/>
</g>
<defs>
<clipPath id="clip0_82_2780">
<rect width="146" height="146" fill="white"/>
</clipPath>
</defs>
</svg>
